<svg width="54" height="47" viewBox="0 0 54 47" fill="none" xmlns="http://www.w3.org/2000/svg">
<path d="M32.8 24C32.4 25.2 31.3 26 30 26H20C18.3 26 17 24.7 17 23V22H29.2C29.6 23.2 30.7 24 32 24H32.8ZM34 6H23C21.3 6 20 7.3 20 9V20H31V21C31 21.6 31.4 22 32 22H33V9C33 8.4 33.4 8 34 8C34.6 8 35 8.4 35 9V10H37V9C37 7.3 35.7 6 34 6Z" fill="#00F5FF"/>
<path d="M16.1675 40V33H20.5175V33.82H17.1675V36.09H19.9675V36.89H17.1675V40H16.1675ZM23.583 40.12C23.103 40.12 22.6764 40.01 22.303 39.79C21.9297 39.57 21.6364 39.2633 21.423 38.87C21.2164 38.4767 21.113 38.02 21.113 37.5C21.113 36.9667 21.2164 36.5033 21.423 36.11C21.6364 35.71 21.9297 35.4 22.303 35.18C22.6764 34.9533 23.1097 34.84 23.603 34.84C24.0964 34.84 24.5197 34.95 24.873 35.17C25.2264 35.39 25.4997 35.6833 25.693 36.05C25.8864 36.41 25.983 36.81 25.983 37.25C25.983 37.3167 25.9797 37.39 25.973 37.47C25.973 37.5433 25.9697 37.6267 25.963 37.72H21.843V37.01H24.983C24.963 36.59 24.823 36.2633 24.563 36.03C24.303 35.79 23.9797 35.67 23.593 35.67C23.3197 35.67 23.0697 35.7333 22.843 35.86C22.6164 35.98 22.433 36.16 22.293 36.4C22.1597 36.6333 22.093 36.93 22.093 37.29V37.57C22.093 37.9433 22.1597 38.26 22.293 38.52C22.433 38.7733 22.6164 38.9667 22.843 39.1C23.0697 39.2267 23.3164 39.29 23.583 39.29C23.903 39.29 24.1664 39.22 24.373 39.08C24.5797 38.94 24.733 38.75 24.833 38.51H25.833C25.7464 38.8167 25.5997 39.0933 25.393 39.34C25.1864 39.58 24.9297 39.77 24.623 39.91C24.323 40.05 23.9764 40.12 23.583 40.12ZM29.3741 40.12C28.8941 40.12 28.4674 40.01 28.0941 39.79C27.7207 39.57 27.4274 39.2633 27.2141 38.87C27.0074 38.4767 26.9041 38.02 26.9041 37.5C26.9041 36.9667 27.0074 36.5033 27.2141 36.11C27.4274 35.71 27.7207 35.4 28.0941 35.18C28.4674 34.9533 28.9007 34.84 29.3941 34.84C29.8874 34.84 30.3107 34.95 30.6641 35.17C31.0174 35.39 31.2907 35.6833 31.4841 36.05C31.6774 36.41 31.7741 36.81 31.7741 37.25C31.7741 37.3167 31.7707 37.39 31.7641 37.47C31.7641 37.5433 31.7607 37.6267 31.7541 37.72H27.6341V37.01H30.7741C30.7541 36.59 30.6141 36.2633 30.3541 36.03C30.0941 35.79 29.7707 35.67 29.3841 35.67C29.1107 35.67 28.8607 35.7333 28.6341 35.86C28.4074 35.98 28.2241 36.16 28.0841 36.4C27.9507 36.6333 27.8841 36.93 27.8841 37.29V37.57C27.8841 37.9433 27.9507 38.26 28.0841 38.52C28.2241 38.7733 28.4074 38.9667 28.6341 39.1C28.8607 39.2267 29.1074 39.29 29.3741 39.29C29.6941 39.29 29.9574 39.22 30.1641 39.08C30.3707 38.94 30.5241 38.75 30.6241 38.51H31.6241C31.5374 38.8167 31.3907 39.0933 31.1841 39.34C30.9774 39.58 30.7207 39.77 30.4141 39.91C30.1141 40.05 29.7674 40.12 29.3741 40.12ZM35.1251 40.12C34.6451 40.12 34.2217 40.0067 33.8551 39.78C33.4884 39.5467 33.2017 39.2333 32.9951 38.84C32.7951 38.44 32.6951 37.9867 32.6951 37.48C32.6951 36.9667 32.7951 36.5133 32.9951 36.12C33.2017 35.7267 33.4884 35.4167 33.8551 35.19C34.2284 34.9567 34.6551 34.84 35.1351 34.84C35.5284 34.84 35.8751 34.92 36.1751 35.08C36.4751 35.2333 36.7084 35.4533 36.8751 35.74V32.8H37.8751V40H36.9751L36.8751 39.22C36.7751 39.3733 36.6451 39.52 36.4851 39.66C36.3251 39.7933 36.1317 39.9033 35.9051 39.99C35.6784 40.0767 35.4184 40.12 35.1251 40.12ZM35.2851 39.25C35.5984 39.25 35.8751 39.1767 36.1151 39.03C36.3551 38.8833 36.5384 38.6767 36.6651 38.41C36.7984 38.1433 36.8651 37.8333 36.8651 37.48C36.8651 37.1267 36.7984 36.82 36.6651 36.56C36.5384 36.2933 36.3551 36.0867 36.1151 35.94C35.8751 35.7867 35.5984 35.71 35.2851 35.71C34.9851 35.71 34.7151 35.7867 34.4751 35.94C34.2351 36.0867 34.0484 36.2933 33.9151 36.56C33.7817 36.82 33.7151 37.1267 33.7151 37.48C33.7151 37.8333 33.7817 38.1433 33.9151 38.41C34.0484 38.6767 34.2351 38.8833 34.4751 39.03C34.7151 39.1767 34.9851 39.25 35.2851 39.25Z" fill="#00F5FF"/>
</svg>
