<svg width="54" height="47" viewBox="0 0 54 47" fill="none" xmlns="http://www.w3.org/2000/svg">
<path d="M36.57 6.17997C36.4376 6.08717 36.2844 6.02857 36.1238 6.00937C35.9633 5.99018 35.8005 6.011 35.65 6.06997C22.29 11.2 19.15 24.71 19.02 25.28L20.97 25.71C20.97 25.71 21.33 24.16 22.28 21.99H26C32.07 21.99 37 17.06 37 10.99V6.99997C37 6.66997 36.84 6.35997 36.57 6.17997ZM35 11C35 15.96 30.96 20 26 20H23.24C25.26 16.16 28.87 11.31 35 8.49997V11Z" fill="#8A8A9A"/>
<path d="M17.4468 40V33H19.8368C20.3968 33 20.8568 33.0933 21.2168 33.28C21.5768 33.4667 21.8435 33.7167 22.0168 34.03C22.1901 34.3433 22.2768 34.7 22.2768 35.1C22.2768 35.48 22.1901 35.83 22.0168 36.15C21.8501 36.4633 21.5868 36.7167 21.2268 36.91C20.8668 37.0967 20.4035 37.19 19.8368 37.19H18.4468V40H17.4468ZM18.4468 36.36H19.7968C20.3235 36.36 20.6968 36.2467 20.9168 36.02C21.1435 35.7867 21.2568 35.48 21.2568 35.1C21.2568 34.6933 21.1435 34.38 20.9168 34.16C20.6968 33.94 20.3235 33.83 19.7968 33.83H18.4468V36.36ZM25.3218 40.12C24.8485 40.12 24.4218 40.01 24.0418 39.79C23.6685 39.57 23.3718 39.2633 23.1518 38.87C22.9385 38.47 22.8318 38.01 22.8318 37.49C22.8318 36.9567 22.9418 36.4933 23.1618 36.1C23.3818 35.7 23.6818 35.39 24.0618 35.17C24.4418 34.95 24.8685 34.84 25.3418 34.84C25.8218 34.84 26.2485 34.95 26.6218 35.17C26.9951 35.39 27.2885 35.6967 27.5018 36.09C27.7218 36.4833 27.8318 36.9467 27.8318 37.48C27.8318 38.0133 27.7218 38.4767 27.5018 38.87C27.2885 39.2633 26.9918 39.57 26.6118 39.79C26.2318 40.01 25.8018 40.12 25.3218 40.12ZM25.3218 39.26C25.5951 39.26 25.8418 39.1933 26.0618 39.06C26.2885 38.9267 26.4685 38.73 26.6018 38.47C26.7418 38.2033 26.8118 37.8733 26.8118 37.48C26.8118 37.0867 26.7451 36.76 26.6118 36.5C26.4785 36.2333 26.2985 36.0333 26.0718 35.9C25.8518 35.7667 25.6085 35.7 25.3418 35.7C25.0751 35.7 24.8285 35.7667 24.6018 35.9C24.3751 36.0333 24.1918 36.2333 24.0518 36.5C23.9185 36.76 23.8518 37.0867 23.8518 37.48C23.8518 37.8733 23.9185 38.2033 24.0518 38.47C24.1918 38.73 24.3718 38.9267 24.5918 39.06C24.8185 39.1933 25.0618 39.26 25.3218 39.26ZM30.9581 40.12C30.5315 40.12 30.1581 40.05 29.8381 39.91C29.5181 39.77 29.2648 39.5733 29.0781 39.32C28.8915 39.0667 28.7781 38.77 28.7381 38.43H29.7581C29.7915 38.59 29.8548 38.7367 29.9481 38.87C30.0481 39.0033 30.1815 39.11 30.3481 39.19C30.5215 39.27 30.7248 39.31 30.9581 39.31C31.1781 39.31 31.3581 39.28 31.4981 39.22C31.6448 39.1533 31.7515 39.0667 31.8181 38.96C31.8848 38.8467 31.9181 38.7267 31.9181 38.6C31.9181 38.4133 31.8715 38.2733 31.7781 38.18C31.6915 38.08 31.5581 38.0033 31.3781 37.95C31.2048 37.89 30.9948 37.8367 30.7481 37.79C30.5148 37.75 30.2881 37.6967 30.0681 37.63C29.8548 37.5567 29.6615 37.4667 29.4881 37.36C29.3215 37.2533 29.1881 37.12 29.0881 36.96C28.9881 36.7933 28.9381 36.59 28.9381 36.35C28.9381 36.0633 29.0148 35.8067 29.1681 35.58C29.3215 35.3467 29.5381 35.1667 29.8181 35.04C30.1048 34.9067 30.4415 34.84 30.8281 34.84C31.3881 34.84 31.8381 34.9733 32.1781 35.24C32.5181 35.5067 32.7181 35.8833 32.7781 36.37H31.8081C31.7815 36.1433 31.6815 35.97 31.5081 35.85C31.3348 35.7233 31.1048 35.66 30.8181 35.66C30.5315 35.66 30.3115 35.7167 30.1581 35.83C30.0048 35.9433 29.9281 36.0933 29.9281 36.28C29.9281 36.4 29.9715 36.5067 30.0581 36.6C30.1448 36.6933 30.2715 36.7733 30.4381 36.84C30.6115 36.9 30.8215 36.9567 31.0681 37.01C31.4215 37.0767 31.7381 37.16 32.0181 37.26C32.2981 37.36 32.5215 37.5067 32.6881 37.7C32.8548 37.8933 32.9381 38.17 32.9381 38.53C32.9448 38.8433 32.8648 39.12 32.6981 39.36C32.5381 39.6 32.3081 39.7867 32.0081 39.92C31.7148 40.0533 31.3648 40.12 30.9581 40.12ZM35.9905 40C35.6705 40 35.3938 39.95 35.1605 39.85C34.9271 39.75 34.7471 39.5833 34.6205 39.35C34.4938 39.1167 34.4305 38.8 34.4305 38.4V35.81H33.5605V34.96H34.4305L34.5505 33.7H35.4305V34.96H36.8605V35.81H35.4305V38.41C35.4305 38.6967 35.4905 38.8933 35.6105 39C35.7305 39.1 35.9371 39.15 36.2305 39.15H36.8105V40H35.9905Z" fill="#8A8A9A"/>
</svg>
