<svg width="54" height="47" viewBox="0 0 54 47" fill="none" xmlns="http://www.w3.org/2000/svg">
<path d="M27 13.8C28.8889 13.8 30.4 12.315 30.4 10.5C30.4 8.685 28.8889 7.2 27 7.2C25.1111 7.2 23.6 8.685 23.6 10.5C23.6 12.315 25.1111 13.8 27 13.8ZM27 16C23.8889 16 21.3778 13.536 21.3778 10.5C21.3778 7.464 23.8889 5 27 5C30.1111 5 32.6222 7.464 32.6222 10.5C32.6222 13.536 30.1111 16 27 16ZM19.2222 24.8H34.7778V23.337C34.7778 21.412 32.2111 19.421 27 19.421C21.7889 19.421 19.2222 21.412 19.2222 23.337V24.8ZM27 17.221C34.4 17.221 37 20.884 37 23.337V27H17V23.337C17 20.884 19.6 17.221 27 17.221Z" fill="#8A8A9A"/>
<path d="M12.9741 40V33H15.3641C15.9241 33 16.3841 33.0933 16.7441 33.28C17.1041 33.4667 17.3708 33.7167 17.5441 34.03C17.7175 34.3433 17.8041 34.7 17.8041 35.1C17.8041 35.48 17.7175 35.83 17.5441 36.15C17.3775 36.4633 17.1141 36.7167 16.7541 36.91C16.3941 37.0967 15.9308 37.19 15.3641 37.19H13.9741V40H12.9741ZM13.9741 36.36H15.3241C15.8508 36.36 16.2241 36.2467 16.4441 36.02C16.6708 35.7867 16.7841 35.48 16.7841 35.1C16.7841 34.6933 16.6708 34.38 16.4441 34.16C16.2241 33.94 15.8508 33.83 15.3241 33.83H13.9741V36.36ZM18.8323 40V34.96H19.7323L19.8223 35.91C19.9357 35.6833 20.0823 35.4933 20.2623 35.34C20.4423 35.18 20.6523 35.0567 20.8923 34.97C21.139 34.8833 21.419 34.84 21.7323 34.84V35.9H21.3723C21.1657 35.9 20.969 35.9267 20.7823 35.98C20.5957 36.0267 20.429 36.11 20.2823 36.23C20.1423 36.35 20.0323 36.5133 19.9523 36.72C19.8723 36.9267 19.8323 37.1833 19.8323 37.49V40H18.8323ZM24.8042 40.12C24.3309 40.12 23.9042 40.01 23.5242 39.79C23.1509 39.57 22.8542 39.2633 22.6342 38.87C22.4209 38.47 22.3142 38.01 22.3142 37.49C22.3142 36.9567 22.4242 36.4933 22.6442 36.1C22.8642 35.7 23.1642 35.39 23.5442 35.17C23.9242 34.95 24.3509 34.84 24.8242 34.84C25.3042 34.84 25.7309 34.95 26.1042 35.17C26.4776 35.39 26.7709 35.6967 26.9842 36.09C27.2042 36.4833 27.3142 36.9467 27.3142 37.48C27.3142 38.0133 27.2042 38.4767 26.9842 38.87C26.7709 39.2633 26.4742 39.57 26.0942 39.79C25.7142 40.01 25.2842 40.12 24.8042 40.12ZM24.8042 39.26C25.0776 39.26 25.3242 39.1933 25.5442 39.06C25.7709 38.9267 25.9509 38.73 26.0842 38.47C26.2242 38.2033 26.2942 37.8733 26.2942 37.48C26.2942 37.0867 26.2276 36.76 26.0942 36.5C25.9609 36.2333 25.7809 36.0333 25.5542 35.9C25.3342 35.7667 25.0909 35.7 24.8242 35.7C24.5576 35.7 24.3109 35.7667 24.0842 35.9C23.8576 36.0333 23.6742 36.2333 23.5342 36.5C23.4009 36.76 23.3342 37.0867 23.3342 37.48C23.3342 37.8733 23.4009 38.2033 23.5342 38.47C23.6742 38.73 23.8542 38.9267 24.0742 39.06C24.3009 39.1933 24.5442 39.26 24.8042 39.26ZM28.7605 40V35.81H28.0205V34.96H28.7605V34.28C28.7605 33.9333 28.8172 33.65 28.9305 33.43C29.0505 33.21 29.2239 33.05 29.4505 32.95C29.6772 32.85 29.9505 32.8 30.2705 32.8H30.7905V33.65H30.4305C30.1905 33.65 30.0172 33.7 29.9105 33.8C29.8105 33.8933 29.7605 34.06 29.7605 34.3V34.96H32.8305V40H31.8305V35.81H29.7605V40H28.7605ZM32.3405 34.09C32.1539 34.09 31.9972 34.03 31.8705 33.91C31.7439 33.79 31.6805 33.6367 31.6805 33.45C31.6805 33.27 31.7439 33.1233 31.8705 33.01C31.9972 32.89 32.1539 32.83 32.3405 32.83C32.5339 32.83 32.6905 32.89 32.8105 33.01C32.9372 33.1233 33.0005 33.27 33.0005 33.45C33.0005 33.6367 32.9372 33.79 32.8105 33.91C32.6905 34.03 32.5339 34.09 32.3405 34.09ZM34.2718 40V32.8H35.2718V40H34.2718ZM38.9248 40.12C38.4448 40.12 38.0182 40.01 37.6448 39.79C37.2715 39.57 36.9782 39.2633 36.7648 38.87C36.5582 38.4767 36.4548 38.02 36.4548 37.5C36.4548 36.9667 36.5582 36.5033 36.7648 36.11C36.9782 35.71 37.2715 35.4 37.6448 35.18C38.0182 34.9533 38.4515 34.84 38.9448 34.84C39.4382 34.84 39.8615 34.95 40.2148 35.17C40.5682 35.39 40.8415 35.6833 41.0348 36.05C41.2282 36.41 41.3248 36.81 41.3248 37.25C41.3248 37.3167 41.3215 37.39 41.3148 37.47C41.3148 37.5433 41.3115 37.6267 41.3048 37.72H37.1848V37.01H40.3248C40.3048 36.59 40.1648 36.2633 39.9048 36.03C39.6448 35.79 39.3215 35.67 38.9348 35.67C38.6615 35.67 38.4115 35.7333 38.1848 35.86C37.9582 35.98 37.7748 36.16 37.6348 36.4C37.5015 36.6333 37.4348 36.93 37.4348 37.29V37.57C37.4348 37.9433 37.5015 38.26 37.6348 38.52C37.7748 38.7733 37.9582 38.9667 38.1848 39.1C38.4115 39.2267 38.6582 39.29 38.9248 39.29C39.2448 39.29 39.5082 39.22 39.7148 39.08C39.9215 38.94 40.0748 38.75 40.1748 38.51H41.1748C41.0882 38.8167 40.9415 39.0933 40.7348 39.34C40.5282 39.58 40.2715 39.77 39.9648 39.91C39.6648 40.05 39.3182 40.12 38.9248 40.12Z" fill="#8A8A9A"/>
</svg>
