<svg width="54" height="47" viewBox="0 0 54 47" fill="none" xmlns="http://www.w3.org/2000/svg">
<path d="M17 9L24 6L30 9L36.303 6.299C36.3791 6.26638 36.4621 6.25317 36.5445 6.26054C36.627 6.26792 36.7063 6.29565 36.7754 6.34124C36.8445 6.38684 36.9012 6.44888 36.9404 6.5218C36.9796 6.59471 37.0001 6.67622 37 6.759V23L30 26L24 23L17.697 25.701C17.6209 25.7336 17.5379 25.7468 17.4555 25.7395C17.373 25.7321 17.2937 25.7044 17.2246 25.6588C17.1555 25.6132 17.0988 25.5511 17.0596 25.4782C17.0204 25.4053 16.9999 25.3238 17 25.241V9ZM21 15V17H23V15H21ZM25 15V17H27V15H25ZM31 14.94L29.763 13.702L28.702 14.762L29.939 16L28.702 17.237L29.762 18.298L31 17.061L32.237 18.298L33.298 17.238L32.061 16L33.298 14.763L32.238 13.702L31 14.94Z" fill="#00F5FF"/>
<path d="M15.932 41L13.522 37.21H14.672L17.102 41H15.932ZM14.132 40.12C13.4586 40.12 12.8653 39.97 12.352 39.67C11.8453 39.3633 11.4453 38.94 11.152 38.4C10.8653 37.8533 10.722 37.22 10.722 36.5C10.722 35.7867 10.8653 35.16 11.152 34.62C11.4453 34.0733 11.8453 33.6467 12.352 33.34C12.8653 33.0333 13.4586 32.88 14.132 32.88C14.8186 32.88 15.4186 33.0333 15.932 33.34C16.4453 33.6467 16.842 34.0733 17.122 34.62C17.4086 35.16 17.552 35.7867 17.552 36.5C17.552 37.22 17.4086 37.8533 17.122 38.4C16.842 38.94 16.4453 39.3633 15.932 39.67C15.4186 39.97 14.8186 40.12 14.132 40.12ZM14.142 39.23C14.622 39.23 15.042 39.12 15.402 38.9C15.762 38.68 16.0386 38.3667 16.232 37.96C16.432 37.5533 16.532 37.0667 16.532 36.5C16.532 35.9333 16.432 35.4467 16.232 35.04C16.0386 34.6333 15.762 34.3233 15.402 34.11C15.042 33.89 14.622 33.78 14.142 33.78C13.662 33.78 13.242 33.89 12.882 34.11C12.522 34.3233 12.242 34.6333 12.042 35.04C11.842 35.4467 11.742 35.9333 11.742 36.5C11.742 37.0667 11.842 37.5533 12.042 37.96C12.242 38.3667 12.522 38.68 12.882 38.9C13.242 39.12 13.662 39.23 14.142 39.23ZM20.5554 40.12C20.1621 40.12 19.8187 40.04 19.5254 39.88C19.2387 39.72 19.0154 39.48 18.8554 39.16C18.7021 38.84 18.6254 38.4367 18.6254 37.95V34.96H19.6254V37.84C19.6254 38.3133 19.7287 38.67 19.9354 38.91C20.1421 39.15 20.4387 39.27 20.8254 39.27C21.0854 39.27 21.3187 39.2067 21.5254 39.08C21.7387 38.9533 21.9054 38.77 22.0254 38.53C22.1454 38.29 22.2054 37.9967 22.2054 37.65V34.96H23.2054V40H22.3154L22.2454 39.14C22.0921 39.4467 21.8687 39.6867 21.5754 39.86C21.2821 40.0333 20.9421 40.12 20.5554 40.12ZM26.8545 40.12C26.3745 40.12 25.9479 40.01 25.5745 39.79C25.2012 39.57 24.9079 39.2633 24.6945 38.87C24.4879 38.4767 24.3845 38.02 24.3845 37.5C24.3845 36.9667 24.4879 36.5033 24.6945 36.11C24.9079 35.71 25.2012 35.4 25.5745 35.18C25.9479 34.9533 26.3812 34.84 26.8745 34.84C27.3679 34.84 27.7912 34.95 28.1445 35.17C28.4979 35.39 28.7712 35.6833 28.9645 36.05C29.1579 36.41 29.2545 36.81 29.2545 37.25C29.2545 37.3167 29.2512 37.39 29.2445 37.47C29.2445 37.5433 29.2412 37.6267 29.2345 37.72H25.1145V37.01H28.2545C28.2345 36.59 28.0945 36.2633 27.8345 36.03C27.5745 35.79 27.2512 35.67 26.8645 35.67C26.5912 35.67 26.3412 35.7333 26.1145 35.86C25.8879 35.98 25.7045 36.16 25.5645 36.4C25.4312 36.6333 25.3645 36.93 25.3645 37.29V37.57C25.3645 37.9433 25.4312 38.26 25.5645 38.52C25.7045 38.7733 25.8879 38.9667 26.1145 39.1C26.3412 39.2267 26.5879 39.29 26.8545 39.29C27.1745 39.29 27.4379 39.22 27.6445 39.08C27.8512 38.94 28.0045 38.75 28.1045 38.51H29.1045C29.0179 38.8167 28.8712 39.0933 28.6645 39.34C28.4579 39.58 28.2012 39.77 27.8945 39.91C27.5945 40.05 27.2479 40.12 26.8545 40.12ZM32.3155 40.12C31.8889 40.12 31.5155 40.05 31.1955 39.91C30.8755 39.77 30.6222 39.5733 30.4355 39.32C30.2489 39.0667 30.1355 38.77 30.0955 38.43H31.1155C31.1489 38.59 31.2122 38.7367 31.3055 38.87C31.4055 39.0033 31.5389 39.11 31.7055 39.19C31.8789 39.27 32.0822 39.31 32.3155 39.31C32.5355 39.31 32.7155 39.28 32.8555 39.22C33.0022 39.1533 33.1089 39.0667 33.1755 38.96C33.2422 38.8467 33.2755 38.7267 33.2755 38.6C33.2755 38.4133 33.2289 38.2733 33.1355 38.18C33.0489 38.08 32.9155 38.0033 32.7355 37.95C32.5622 37.89 32.3522 37.8367 32.1055 37.79C31.8722 37.75 31.6455 37.6967 31.4255 37.63C31.2122 37.5567 31.0189 37.4667 30.8455 37.36C30.6789 37.2533 30.5455 37.12 30.4455 36.96C30.3455 36.7933 30.2955 36.59 30.2955 36.35C30.2955 36.0633 30.3722 35.8067 30.5255 35.58C30.6789 35.3467 30.8955 35.1667 31.1755 35.04C31.4622 34.9067 31.7989 34.84 32.1855 34.84C32.7455 34.84 33.1955 34.9733 33.5355 35.24C33.8755 35.5067 34.0755 35.8833 34.1355 36.37H33.1655C33.1389 36.1433 33.0389 35.97 32.8655 35.85C32.6922 35.7233 32.4622 35.66 32.1755 35.66C31.8889 35.66 31.6689 35.7167 31.5155 35.83C31.3622 35.9433 31.2855 36.0933 31.2855 36.28C31.2855 36.4 31.3289 36.5067 31.4155 36.6C31.5022 36.6933 31.6289 36.7733 31.7955 36.84C31.9689 36.9 32.1789 36.9567 32.4255 37.01C32.7789 37.0767 33.0955 37.16 33.3755 37.26C33.6555 37.36 33.8789 37.5067 34.0455 37.7C34.2122 37.8933 34.2955 38.17 34.2955 38.53C34.3022 38.8433 34.2222 39.12 34.0555 39.36C33.8955 39.6 33.6655 39.7867 33.3655 39.92C33.0722 40.0533 32.7222 40.12 32.3155 40.12ZM37.3479 40C37.0279 40 36.7512 39.95 36.5179 39.85C36.2846 39.75 36.1046 39.5833 35.9779 39.35C35.8512 39.1167 35.7879 38.8 35.7879 38.4V35.81H34.9179V34.96H35.7879L35.9079 33.7H36.7879V34.96H38.2179V35.81H36.7879V38.41C36.7879 38.6967 36.8479 38.8933 36.9679 39C37.0879 39.1 37.2946 39.15 37.5879 39.15H38.1679V40H37.3479ZM41.2706 40.12C40.844 40.12 40.4706 40.05 40.1506 39.91C39.8306 39.77 39.5773 39.5733 39.3906 39.32C39.204 39.0667 39.0906 38.77 39.0506 38.43H40.0706C40.104 38.59 40.1673 38.7367 40.2606 38.87C40.3606 39.0033 40.494 39.11 40.6606 39.19C40.834 39.27 41.0373 39.31 41.2706 39.31C41.4906 39.31 41.6706 39.28 41.8106 39.22C41.9573 39.1533 42.064 39.0667 42.1306 38.96C42.1973 38.8467 42.2306 38.7267 42.2306 38.6C42.2306 38.4133 42.184 38.2733 42.0906 38.18C42.004 38.08 41.8706 38.0033 41.6906 37.95C41.5173 37.89 41.3073 37.8367 41.0606 37.79C40.8273 37.75 40.6006 37.6967 40.3806 37.63C40.1673 37.5567 39.974 37.4667 39.8006 37.36C39.634 37.2533 39.5006 37.12 39.4006 36.96C39.3006 36.7933 39.2506 36.59 39.2506 36.35C39.2506 36.0633 39.3273 35.8067 39.4806 35.58C39.634 35.3467 39.8506 35.1667 40.1306 35.04C40.4173 34.9067 40.754 34.84 41.1406 34.84C41.7006 34.84 42.1506 34.9733 42.4906 35.24C42.8306 35.5067 43.0306 35.8833 43.0906 36.37H42.1206C42.094 36.1433 41.994 35.97 41.8206 35.85C41.6473 35.7233 41.4173 35.66 41.1306 35.66C40.844 35.66 40.624 35.7167 40.4706 35.83C40.3173 35.9433 40.2406 36.0933 40.2406 36.28C40.2406 36.4 40.284 36.5067 40.3706 36.6C40.4573 36.6933 40.584 36.7733 40.7506 36.84C40.924 36.9 41.134 36.9567 41.3806 37.01C41.734 37.0767 42.0506 37.16 42.3306 37.26C42.6106 37.36 42.834 37.5067 43.0006 37.7C43.1673 37.8933 43.2506 38.17 43.2506 38.53C43.2573 38.8433 43.1773 39.12 43.0106 39.36C42.8506 39.6 42.6206 39.7867 42.3206 39.92C42.0273 40.0533 41.6773 40.12 41.2706 40.12Z" fill="#00F5FF"/>
</svg>
