<svg width="54" height="47" viewBox="0 0 54 47" fill="none" xmlns="http://www.w3.org/2000/svg">
<path d="M26.707 6.293C26.5195 6.10545 26.2652 6.00006 26 6H21C20.7348 6.00006 20.4805 6.10545 20.293 6.293L17.293 9.293C17.1055 9.48049 17.0001 9.73481 17 10V15C17 15.266 17.105 15.52 17.293 15.707L27.293 25.707C27.3857 25.8002 27.4958 25.8741 27.6171 25.9246C27.7385 25.9751 27.8686 26.001 28 26.001C28.1314 26.001 28.2615 25.9751 28.3829 25.9246C28.5042 25.8741 28.6143 25.8002 28.707 25.707L36.707 17.707C36.8945 17.5195 36.9998 17.2652 36.9998 17C36.9998 16.7348 36.8945 16.4805 36.707 16.293L26.707 6.293ZM23.353 14C23.1334 14.0055 22.9149 13.967 22.7103 13.8867C22.5058 13.8065 22.3194 13.6861 22.1621 13.5327C22.0048 13.3793 21.8798 13.196 21.7944 12.9936C21.709 12.7912 21.665 12.5737 21.6649 12.354C21.6649 12.1343 21.7087 11.9168 21.794 11.7143C21.8793 11.5118 22.0042 11.3285 22.1614 11.175C22.3186 11.0215 22.5049 10.9011 22.7094 10.8207C22.9139 10.7403 23.1324 10.7017 23.352 10.707C23.7817 10.7175 24.1902 10.8955 24.4904 11.203C24.7907 11.5105 24.9588 11.9232 24.9589 12.353C24.9591 12.7828 24.7912 13.1956 24.4911 13.5033C24.1911 13.811 23.7827 13.9893 23.353 14Z" fill="#00F5FF"/>
<path d="M17.979 40.12C17.4657 40.12 17.0157 40.03 16.629 39.85C16.2423 39.6633 15.9423 39.4033 15.729 39.07C15.5157 38.7367 15.409 38.3467 15.409 37.9H16.459C16.4657 38.1533 16.5257 38.3867 16.639 38.6C16.759 38.8067 16.929 38.9733 17.149 39.1C17.3757 39.22 17.6523 39.28 17.979 39.28C18.259 39.28 18.499 39.2333 18.699 39.14C18.9057 39.0467 19.0623 38.92 19.169 38.76C19.2757 38.5933 19.329 38.4033 19.329 38.19C19.329 37.9433 19.2723 37.74 19.159 37.58C19.0457 37.42 18.8923 37.29 18.699 37.19C18.5123 37.0833 18.2923 36.99 18.039 36.91C17.7923 36.83 17.5323 36.7433 17.259 36.65C16.7057 36.47 16.2923 36.2367 16.019 35.95C15.7523 35.6633 15.619 35.29 15.619 34.83C15.619 34.4367 15.7123 34.0967 15.899 33.81C16.0857 33.5167 16.3457 33.29 16.679 33.13C17.019 32.9633 17.419 32.88 17.879 32.88C18.3323 32.88 18.729 32.9633 19.069 33.13C19.409 33.2967 19.6757 33.5267 19.869 33.82C20.0623 34.1133 20.159 34.4567 20.159 34.85H19.099C19.099 34.67 19.0523 34.4933 18.959 34.32C18.8657 34.1467 18.7257 34.0067 18.539 33.9C18.3523 33.7867 18.1223 33.73 17.849 33.73C17.6223 33.7233 17.419 33.76 17.239 33.84C17.059 33.92 16.919 34.0367 16.819 34.19C16.719 34.3433 16.669 34.5267 16.669 34.74C16.669 34.9533 16.7123 35.1267 16.799 35.26C16.8923 35.3867 17.0257 35.4967 17.199 35.59C17.3723 35.6833 17.5723 35.77 17.799 35.85C18.0323 35.9233 18.289 36.0067 18.569 36.1C18.9157 36.2133 19.2223 36.3533 19.489 36.52C19.7623 36.68 19.9757 36.89 20.129 37.15C20.289 37.4033 20.369 37.73 20.369 38.13C20.369 38.4767 20.279 38.8 20.099 39.1C19.919 39.4 19.6523 39.6467 19.299 39.84C18.9457 40.0267 18.5057 40.12 17.979 40.12ZM21.5081 40V32.8H22.5081V35.78C22.6748 35.4867 22.9048 35.2567 23.1981 35.09C23.4981 34.9233 23.8281 34.84 24.1881 34.84C24.5881 34.84 24.9315 34.9233 25.2181 35.09C25.5048 35.25 25.7248 35.4933 25.8781 35.82C26.0315 36.14 26.1081 36.5433 26.1081 37.03V40H25.1181V37.13C25.1181 36.6633 25.0181 36.31 24.8181 36.07C24.6181 35.8233 24.3215 35.7 23.9281 35.7C23.6615 35.7 23.4215 35.7633 23.2081 35.89C22.9948 36.0167 22.8248 36.2033 22.6981 36.45C22.5715 36.69 22.5081 36.9833 22.5081 37.33V40H21.5081ZM29.687 40.12C29.2137 40.12 28.787 40.01 28.407 39.79C28.0337 39.57 27.737 39.2633 27.517 38.87C27.3037 38.47 27.197 38.01 27.197 37.49C27.197 36.9567 27.307 36.4933 27.527 36.1C27.747 35.7 28.047 35.39 28.427 35.17C28.807 34.95 29.2337 34.84 29.707 34.84C30.187 34.84 30.6137 34.95 30.987 35.17C31.3604 35.39 31.6537 35.6967 31.867 36.09C32.087 36.4833 32.197 36.9467 32.197 37.48C32.197 38.0133 32.087 38.4767 31.867 38.87C31.6537 39.2633 31.357 39.57 30.977 39.79C30.597 40.01 30.167 40.12 29.687 40.12ZM29.687 39.26C29.9604 39.26 30.207 39.1933 30.427 39.06C30.6537 38.9267 30.8337 38.73 30.967 38.47C31.107 38.2033 31.177 37.8733 31.177 37.48C31.177 37.0867 31.1104 36.76 30.977 36.5C30.8437 36.2333 30.6637 36.0333 30.437 35.9C30.217 35.7667 29.9737 35.7 29.707 35.7C29.4404 35.7 29.1937 35.7667 28.967 35.9C28.7404 36.0333 28.557 36.2333 28.417 36.5C28.2837 36.76 28.217 37.0867 28.217 37.48C28.217 37.8733 28.2837 38.2033 28.417 38.47C28.557 38.73 28.737 38.9267 28.957 39.06C29.1837 39.1933 29.427 39.26 29.687 39.26ZM33.3734 42.2V34.96H34.2734L34.3734 35.74C34.48 35.5867 34.6134 35.4433 34.7734 35.31C34.9334 35.17 35.1234 35.0567 35.3434 34.97C35.57 34.8833 35.8334 34.84 36.1334 34.84C36.6134 34.84 37.0334 34.9567 37.3934 35.19C37.76 35.4233 38.0434 35.74 38.2434 36.14C38.45 36.5333 38.5534 36.9833 38.5534 37.49C38.5534 37.9967 38.45 38.45 38.2434 38.85C38.0367 39.2433 37.75 39.5533 37.3834 39.78C37.0234 40.0067 36.6034 40.12 36.1234 40.12C35.73 40.12 35.3834 40.0433 35.0834 39.89C34.7834 39.73 34.5467 39.51 34.3734 39.23V42.2H33.3734ZM35.9634 39.25C36.27 39.25 36.54 39.1767 36.7734 39.03C37.0134 38.8833 37.2 38.6767 37.3334 38.41C37.4734 38.1433 37.5434 37.8333 37.5434 37.48C37.5434 37.1267 37.4734 36.82 37.3334 36.56C37.2 36.2933 37.0134 36.0867 36.7734 35.94C36.54 35.7867 36.27 35.71 35.9634 35.71C35.65 35.71 35.3734 35.7867 35.1334 35.94C34.9 36.0867 34.7167 36.2933 34.5834 36.56C34.45 36.82 34.3834 37.1267 34.3834 37.48C34.3834 37.8333 34.45 38.1433 34.5834 38.41C34.7167 38.6767 34.9 38.8833 35.1334 39.03C35.3734 39.1767 35.65 39.25 35.9634 39.25Z" fill="#00F5FF"/>
</svg>
