<svg width="12" height="12" viewBox="0 0 12 12" fill="none" xmlns="http://www.w3.org/2000/svg">
<path d="M7.5 4.875C7.5 5.27282 7.34196 5.65436 7.06066 5.93566C6.77936 6.21696 6.39782 6.375 6 6.375C5.60218 6.375 5.22064 6.21696 4.93934 5.93566C4.65804 5.65436 4.5 5.27282 4.5 4.875C4.5 4.47718 4.65804 4.09564 4.93934 3.81434C5.22064 3.53304 5.60218 3.375 6 3.375C6.39782 3.375 6.77936 3.53304 7.06066 3.81434C7.34196 4.09564 7.5 4.47718 7.5 4.875Z" fill="#8A8A9A"/>
<path d="M5.39475 11.3715C4.67406 10.8673 4.00438 10.2938 3.39525 9.65925C2.325 8.5395 1.125 6.85875 1.125 4.875C1.125 2.43375 3.10575 0 6 0C8.89425 0 10.875 2.43375 10.875 4.875C10.875 6.85875 9.675 8.5395 8.60475 9.65925C7.99562 10.2938 7.32594 10.8673 6.60525 11.3715C6.408 11.5087 6.20325 11.6348 6 11.7638C5.7975 11.6348 5.592 11.5087 5.39475 11.3715ZM6 1.5C4.01925 1.5 2.625 3.174 2.625 4.875C2.625 6.26625 3.4875 7.5855 4.47975 8.622C4.94789 9.11004 5.45645 9.55763 6 9.96C6.54352 9.55787 7.05208 9.11053 7.52025 8.62275C8.5125 7.5855 9.375 6.267 9.375 4.875C9.375 3.174 7.98075 1.5 6 1.5Z" fill="#8A8A9A"/>
</svg>
