<svg width="24" height="24" viewBox="0 0 24 24" fill="none" xmlns="http://www.w3.org/2000/svg">
<path d="M18 24C17 24 16.15 23.65 15.45 22.95C14.75 22.25 14.4 21.4 14.4 20.4C14.4 20.28 14.43 20 14.49 19.56L6.06 14.64C5.74 14.94 5.37 15.1752 4.95 15.3456C4.53 15.516 4.08 15.6008 3.6 15.6C2.6 15.6 1.75 15.25 1.05 14.55C0.35 13.85 0 13 0 12C0 11 0.35 10.15 1.05 9.45C1.75 8.75 2.6 8.4 3.6 8.4C4.08 8.4 4.53 8.4852 4.95 8.6556C5.37 8.826 5.74 9.0608 6.06 9.36L14.49 4.44C14.45 4.3 14.4252 4.1652 14.4156 4.0356C14.406 3.906 14.4008 3.7608 14.4 3.6C14.4 2.6 14.75 1.75 15.45 1.05C16.15 0.35 17 0 18 0C19 0 19.85 0.35 20.55 1.05C21.25 1.75 21.6 2.6 21.6 3.6C21.6 4.6 21.25 5.45 20.55 6.15C19.85 6.85 19 7.2 18 7.2C17.52 7.2 17.07 7.1148 16.65 6.9444C16.23 6.774 15.86 6.5392 15.54 6.24L7.11 11.16C7.15 11.3 7.1752 11.4352 7.1856 11.5656C7.196 11.696 7.2008 11.8408 7.2 12C7.1992 12.1592 7.1944 12.3044 7.1856 12.4356C7.1768 12.5668 7.1516 12.7016 7.11 12.84L15.54 17.76C15.86 17.46 16.23 17.2252 16.65 17.0556C17.07 16.886 17.52 16.8008 18 16.8C19 16.8 19.85 17.15 20.55 17.85C21.25 18.55 21.6 19.4 21.6 20.4C21.6 21.4 21.25 22.25 20.55 22.95C19.85 23.65 19 24 18 24Z" fill="#8A8A9A"/>
</svg>
