<svg width="20" height="20" viewBox="0 0 20 20" fill="none" xmlns="http://www.w3.org/2000/svg">
<path d="M6.96945 14.5639C7.98764 14.5639 8.87491 15.1407 9.29309 15.9921C9.37603 16.1608 9.38638 16.3544 9.32187 16.5305C9.25736 16.7065 9.12327 16.8506 8.94909 16.9309C8.77492 17.0112 8.57493 17.0212 8.39312 16.9587C8.21131 16.8963 8.06258 16.7664 7.97964 16.5978C7.88977 16.4115 7.74709 16.2539 7.56824 16.1432C7.38939 16.0324 7.18173 15.9732 6.96945 15.9724H3.45455C3.26166 15.9724 3.07668 15.8982 2.94029 15.7661C2.8039 15.634 2.72727 15.4549 2.72727 15.2681C2.72727 15.0813 2.8039 14.9022 2.94029 14.7701C3.07668 14.6381 3.26166 14.5639 3.45455 14.5639H6.96945ZM16.5455 14.5639C16.7383 14.5639 16.9233 14.6381 17.0597 14.7701C17.1961 14.9022 17.2727 15.0813 17.2727 15.2681C17.2727 15.4549 17.1961 15.634 17.0597 15.7661C16.9233 15.8982 16.7383 15.9724 16.5455 15.9724H13.0305C12.6182 15.9724 12.2051 16.2238 12.0204 16.5985C11.9374 16.7671 11.7887 16.897 11.6069 16.9594C11.4251 17.0219 11.2251 17.0119 11.0509 16.9316C10.8767 16.8513 10.7426 16.7072 10.6781 16.5312C10.6136 16.3551 10.624 16.1615 10.7069 15.9928C10.9177 15.5682 11.2471 15.2092 11.6578 14.9567C12.0685 14.7041 12.544 14.568 13.0305 14.5639H16.5455Z" fill="#8A8A9A"/>
<path fill-rule="evenodd" clip-rule="evenodd" d="M7.73745 4.00423C8.17265 4.02628 8.59837 4.13556 8.9877 4.32516C9.37703 4.51475 9.72149 4.78053 9.99927 5.10568C10.2946 4.76002 10.665 4.48171 11.0841 4.29059C11.5032 4.09947 11.9607 4.00024 12.424 4H17.2727C17.4656 4 17.6506 4.0742 17.787 4.20627C17.9234 4.33835 18 4.51748 18 4.70426V13.1561C18 13.3428 17.9234 13.522 17.787 13.654C17.6506 13.7861 17.4656 13.8603 17.2727 13.8603L12.424 13.8596C11.9455 13.8596 11.6349 13.9737 11.4262 14.1089C11.2228 14.244 11.0597 14.4286 10.9535 14.6441C10.8185 14.9117 10.7416 15.2031 10.7273 15.5005V15.5069L10.7236 15.5752C10.7056 15.7489 10.6216 15.91 10.4879 16.0271C10.3542 16.1442 10.1803 16.2091 10 16.2091C9.81969 16.2091 9.64581 16.1442 9.5121 16.0271C9.37838 15.91 9.29437 15.7489 9.27636 15.5752L9.27273 15.5033V15.4998L9.26982 15.4519C9.25067 15.1704 9.17534 14.8951 9.048 14.6413C8.94462 14.4261 8.78398 14.2414 8.58255 14.1061C8.37891 13.9723 8.07491 13.8596 7.60582 13.8596H2.72727C2.53439 13.8596 2.3494 13.7854 2.21301 13.6533C2.07662 13.5213 2 13.3421 2 13.1553V4.70426C2 4.51748 2.07662 4.33835 2.21301 4.20627C2.3494 4.0742 2.53439 4 2.72727 4H7.576L7.73745 4.00423ZM9.27273 5.40852V14.0948H10.7273V5.40852H9.27273Z" fill="#8A8A9A"/>
</svg>
