<svg width="20" height="20" viewBox="0 0 20 20" fill="none" xmlns="http://www.w3.org/2000/svg">
<path d="M10.0834 17.5C9.8473 17.5 9.64953 17.42 9.49008 17.26C9.33064 17.1 9.25064 16.9022 9.25008 16.6667C9.25008 16.5694 9.27091 16.4686 9.31258 16.3642C9.35425 16.2597 9.41675 16.1661 9.50008 16.0833L13.3542 12.2292L12.7501 11.625L8.91675 15.4792C8.83341 15.5625 8.74314 15.625 8.64591 15.6667C8.54869 15.7083 8.44453 15.7292 8.33341 15.7292C8.0973 15.7292 7.89953 15.6494 7.74008 15.49C7.58064 15.3306 7.50064 15.1325 7.50008 14.8958C7.50008 14.7569 7.52091 14.6422 7.56258 14.5517C7.60425 14.4611 7.6598 14.3814 7.72925 14.3125L11.5834 10.4583L11.0001 9.875L7.14591 13.7083C7.06258 13.7917 6.9723 13.8542 6.87508 13.8958C6.77786 13.9375 6.66675 13.9583 6.54175 13.9583C6.31953 13.9583 6.12508 13.875 5.95841 13.7083C5.79175 13.5417 5.70841 13.3472 5.70841 13.125C5.70841 13.0139 5.72925 12.9097 5.77091 12.8125C5.81258 12.7153 5.87508 12.625 5.95841 12.5417L9.81258 8.6875L9.20841 8.10417L5.37508 11.9583C5.30564 12.0278 5.2223 12.0833 5.12508 12.125C5.02786 12.1667 4.9098 12.1875 4.77091 12.1875C4.5348 12.1875 4.33675 12.1075 4.17675 11.9475C4.01675 11.7875 3.93703 11.5897 3.93758 11.3542C3.93758 11.2431 3.95841 11.1389 4.00008 11.0417C4.04175 10.9444 4.10425 10.8542 4.18758 10.7708L8.83342 6.125L11.9584 9.27084C12.1112 9.42361 12.2917 9.54528 12.5001 9.63584C12.7084 9.72639 12.9167 9.77139 13.1251 9.77084C13.5695 9.77084 13.9584 9.61473 14.2917 9.3025C14.6251 8.99028 14.7917 8.59084 14.7917 8.10417C14.7917 7.90973 14.757 7.70834 14.6876 7.5C14.6181 7.29167 14.4931 7.09723 14.3126 6.91667L10.5834 3.1875C10.8195 2.96528 11.0834 2.79528 11.3751 2.6775C11.6667 2.55973 11.9584 2.50056 12.2501 2.5C12.6112 2.5 12.9445 2.55917 13.2501 2.6775C13.5556 2.79584 13.8334 2.97973 14.0834 3.22917L17.6042 6.77084C17.8542 7.02084 18.0384 7.29861 18.1567 7.60417C18.2751 7.90973 18.334 8.26389 18.3334 8.66667C18.3334 8.94445 18.2709 9.22584 18.1459 9.51084C18.0209 9.79584 17.8404 10.0561 17.6042 10.2917L10.6667 17.25C10.5556 17.3611 10.4584 17.4306 10.3751 17.4583C10.2917 17.4861 10.1945 17.5 10.0834 17.5ZM2.93758 10.8333L2.39591 10.2917C2.1598 10.0694 1.97925 9.80556 1.85425 9.5C1.72925 9.19445 1.66675 8.875 1.66675 8.54167C1.66675 8.18056 1.73619 7.84723 1.87508 7.54167C2.01397 7.23611 2.18758 6.97917 2.39591 6.77084L5.91675 3.22917C6.13897 3.00695 6.40286 2.82973 6.70841 2.6975C7.01397 2.56528 7.31258 2.49945 7.60425 2.5C7.97925 2.5 8.31258 2.55223 8.60425 2.65667C8.89591 2.76111 9.18064 2.95195 9.45842 3.22917L13.7292 7.5C13.8126 7.58334 13.8751 7.67361 13.9167 7.77084C13.9584 7.86806 13.9792 7.97223 13.9792 8.08334C13.9792 8.30556 13.8959 8.5 13.7292 8.66667C13.5626 8.83334 13.3681 8.91667 13.1459 8.91667C13.0209 8.91667 12.9167 8.89945 12.8334 8.865C12.7501 8.83056 12.6598 8.76445 12.5626 8.66667L8.81258 4.95834L2.93758 10.8333Z" fill="#8A8A9A"/>
</svg>
