<svg width="20" height="20" viewBox="0 0 20 20" fill="none" xmlns="http://www.w3.org/2000/svg">
<g clip-path="url(#clip0_906_455)">
<path d="M14.6484 3.69332L12.9817 2.81832C11.5184 2.05082 10.7867 1.66666 10.0001 1.66666C9.21341 1.66666 8.48175 2.04999 7.01841 2.81832L6.75091 2.95916L14.1867 7.20832L17.5334 5.53332C16.9951 4.92332 16.1267 4.46749 14.6484 3.69166M18.1234 6.63666L14.7917 8.30332V10.8333C14.7917 10.9991 14.7259 11.1581 14.6087 11.2753C14.4915 11.3925 14.3325 11.4583 14.1667 11.4583C14.001 11.4583 13.842 11.3925 13.7248 11.2753C13.6076 11.1581 13.5417 10.9991 13.5417 10.8333V8.92832L10.6251 10.3867V18.2533C11.2234 18.1042 11.9042 17.7475 12.9817 17.1817L14.6484 16.3067C16.4409 15.3658 17.3376 14.8958 17.8359 14.05C18.3334 13.205 18.3334 12.1525 18.3334 10.05V9.95249C18.3334 8.37499 18.3334 7.38832 18.1234 6.63666ZM9.37508 18.2533V10.3867L1.87675 6.63666C1.66675 7.38832 1.66675 8.37499 1.66675 9.95082V10.0483C1.66675 12.1525 1.66675 13.205 2.16425 14.05C2.66258 14.8958 3.55925 15.3667 5.35175 16.3075L7.01841 17.1817C8.09591 17.7475 8.77675 18.1042 9.37508 18.2533ZM2.46675 5.53416L10.0001 9.30082L12.8426 7.87999L5.43758 3.64832L5.35175 3.69332C3.87425 4.46832 3.00508 4.92416 2.46675 5.53499" fill="currentColor"/>
</g>
<defs>
<clipPath id="clip0_906_455">
<rect width="20" height="20" fill="white"/>
</clipPath>
</defs>
</svg>
