<svg width="14" height="14" viewBox="0 0 14 14" fill="none" xmlns="http://www.w3.org/2000/svg">
<path d="M5.57078 8.8375L10.5145 3.89375C10.6312 3.77708 10.7673 3.71875 10.9229 3.71875C11.0784 3.71875 11.2145 3.77708 11.3312 3.89375C11.4479 4.01042 11.5062 4.14906 11.5062 4.30967C11.5062 4.47028 11.4479 4.60872 11.3312 4.725L5.97911 10.0917C5.86244 10.2083 5.72633 10.2667 5.57078 10.2667C5.41522 10.2667 5.27911 10.2083 5.16244 10.0917L2.65411 7.58333C2.53744 7.46667 2.48144 7.32822 2.48611 7.168C2.49078 7.00778 2.55164 6.86914 2.66869 6.75208C2.78575 6.63503 2.92439 6.57669 3.08461 6.57708C3.24483 6.57747 3.38328 6.63581 3.49994 6.75208L5.57078 8.8375Z" fill="#39FF14"/>
</svg>
