<svg width="14" height="14" viewBox="0 0 14 14" fill="none" xmlns="http://www.w3.org/2000/svg">
<path d="M6.99984 1.16663C6.23379 1.16663 5.47525 1.31751 4.76752 1.61066C4.05978 1.90381 3.41672 2.33349 2.87505 2.87517C1.78109 3.96913 1.1665 5.45286 1.1665 6.99996C1.1665 8.54706 1.78109 10.0308 2.87505 11.1247C3.41672 11.6664 4.05978 12.0961 4.76752 12.3893C5.47525 12.6824 6.23379 12.8333 6.99984 12.8333C8.54693 12.8333 10.0307 12.2187 11.1246 11.1247C12.2186 10.0308 12.8332 8.54706 12.8332 6.99996C12.8332 6.23391 12.6823 5.47537 12.3891 4.76764C12.096 4.05991 11.6663 3.41684 11.1246 2.87517C10.583 2.33349 9.93989 1.90381 9.23216 1.61066C8.52442 1.31751 7.76588 1.16663 6.99984 1.16663ZM9.44984 9.44996L6.4165 7.58329V4.08329H7.2915V7.11663L9.9165 8.69163L9.44984 9.44996Z" fill="#FFD700"/>
</svg>
