<svg width="28" height="28" viewBox="0 0 28 28" fill="none" xmlns="http://www.w3.org/2000/svg">
<path d="M18.1844 13.0434L18.651 12.5768C19.3822 11.8495 19.7945 10.8617 19.7974 9.83053C19.8004 8.79934 19.3936 7.8092 18.6666 7.07787L14.5522 2.98676C13.8229 2.2577 12.8339 1.84814 11.8027 1.84814C10.7715 1.84814 9.78254 2.2577 9.05326 2.98676L2.40326 9.63676C1.67421 10.366 1.26465 11.355 1.26465 12.3862C1.26465 13.4174 1.67421 14.4064 2.40326 15.1356L6.49437 19.2268C7.22365 19.9558 8.21262 20.3654 9.24382 20.3654C10.275 20.3654 11.264 19.9558 11.9933 19.2268L12.3433 18.8768L13.9766 20.5879H16.6522V22.9212H19.5222V24.189L21.7777 26.4445H26.4444V21.3501L18.1844 13.0434ZM11.5266 7.91787L7.28771 12.1645C7.14198 12.3094 6.94485 12.3907 6.73937 12.3907C6.5339 12.3907 6.33677 12.3094 6.19104 12.1645L5.87993 11.8534C5.73507 11.7077 5.65376 11.5106 5.65376 11.3051C5.65376 11.0996 5.73507 10.9025 5.87993 10.7568L10.111 6.50231C10.2568 6.35745 10.4539 6.27614 10.6594 6.27614C10.8649 6.27614 11.062 6.35745 11.2077 6.50231L11.5188 6.81343C11.5922 6.88522 11.6507 6.97083 11.6909 7.06533C11.731 7.15983 11.7521 7.26135 11.7528 7.36403C11.7535 7.4667 11.7339 7.56851 11.6951 7.66357C11.6562 7.75862 11.599 7.84505 11.5266 7.91787ZM24.8888 24.889H22.4466L21.0699 23.5201V21.3423H18.2077V19.009H14.6222L13.4399 17.7568L17.111 14.1401L24.8888 21.9956V24.889Z" fill="#00F5FF"/>
</svg>
