<svg width="64" height="64" viewBox="0 0 64 64" fill="none" xmlns="http://www.w3.org/2000/svg">
<rect width="64" height="64" rx="18" fill="#00F5FF" fill-opacity="0.1"/>
<rect x="0.5" y="0.5" width="63" height="63" rx="17.5" stroke="#00F5FF" stroke-opacity="0.3"/>
<path d="M31.9998 19.1667C30.4527 19.1667 28.969 19.7812 27.875 20.8752C26.7811 21.9692 26.1665 23.4529 26.1665 25V27.3333H24.9998C24.381 27.3333 23.7875 27.5792 23.3499 28.0167C22.9123 28.4543 22.6665 29.0478 22.6665 29.6667V41.3333C22.6665 41.9522 22.9123 42.5457 23.3499 42.9832C23.7875 43.4208 24.381 43.6667 24.9998 43.6667H38.9998C39.6187 43.6667 40.2122 43.4208 40.6498 42.9832C41.0873 42.5457 41.3332 41.9522 41.3332 41.3333V29.6667C41.3332 29.0478 41.0873 28.4543 40.6498 28.0167C40.2122 27.5792 39.6187 27.3333 38.9998 27.3333H37.8332V25C37.8332 24.2339 37.6823 23.4754 37.3891 22.7677C37.096 22.0599 36.6663 21.4169 36.1246 20.8752C35.583 20.3335 34.9399 19.9038 34.2322 19.6107C33.5244 19.3175 32.7659 19.1667 31.9998 19.1667ZM31.9998 21.3833C33.9948 21.3833 35.6165 23.005 35.6165 25V27.3333H28.3832V25C28.3832 23.005 30.0048 21.3833 31.9998 21.3833ZM32.2215 30.25C33.3182 30.25 34.1932 30.495 34.8232 30.9733C35.4532 31.4633 35.7682 32.1167 35.7682 32.9333C35.7682 33.4467 35.5932 33.9017 35.2548 34.3333C34.9165 34.7533 34.4732 35.08 33.9365 35.325C33.6332 35.5 33.4348 35.675 33.3298 35.8733C33.2248 36.0833 33.1665 36.34 33.1665 36.6667H30.8332C30.8332 36.0833 30.9498 35.6867 31.1715 35.4067C31.4165 35.1267 31.8132 34.8 32.4198 34.4267C32.7232 34.2633 32.9682 34.0533 33.1665 33.7967C33.3298 33.5517 33.4232 33.26 33.4232 32.9333C33.4232 32.5833 33.3182 32.3267 33.1082 32.1283C32.8982 31.9183 32.5832 31.825 32.2215 31.825C31.9065 31.825 31.6498 31.9067 31.4165 32.07C31.2298 32.2333 31.1132 32.4783 31.1132 32.805H28.8148C28.7565 32 29.0832 31.3 29.7248 30.88C30.3548 30.46 31.1832 30.25 32.2215 30.25ZM30.8332 37.8333H33.1665V40.1667H30.8332V37.8333Z" fill="#00F5FF"/>
</svg>
