<svg width="12" height="12" viewBox="0 0 12 12" fill="none" xmlns="http://www.w3.org/2000/svg">
<path d="M6 11C5.30833 11 4.65833 10.8687 4.05 10.606C3.44167 10.3433 2.9125 9.98717 2.4625 9.5375C2.0125 9.08783 1.65633 8.55867 1.394 7.95C1.13167 7.34133 1.00033 6.69133 1 6C0.999667 5.30867 1.131 4.65867 1.394 4.05C1.657 3.44133 2.01317 2.91217 2.4625 2.4625C2.91183 2.01283 3.441 1.65667 4.05 1.394C4.659 1.13133 5.309 1 6 1C6.691 1 7.341 1.13133 7.95 1.394C8.559 1.65667 9.08817 2.01283 9.5375 2.4625C9.98683 2.91217 10.3432 3.44133 10.6065 4.05C10.8698 4.65867 11.001 5.30867 11 6C10.999 6.69133 10.8677 7.34133 10.606 7.95C10.3443 8.55867 9.98817 9.08783 9.5375 9.5375C9.08683 9.98717 8.55767 10.3435 7.95 10.6065C7.34233 10.8695 6.69233 11.0007 6 11ZM6 10C7.11667 10 8.0625 9.6125 8.8375 8.8375C9.6125 8.0625 10 7.11667 10 6C10 4.88333 9.6125 3.9375 8.8375 3.1625C8.0625 2.3875 7.11667 2 6 2C4.88333 2 3.9375 2.3875 3.1625 3.1625C2.3875 3.9375 2 4.88333 2 6C2 7.11667 2.3875 8.0625 3.1625 8.8375C3.9375 9.6125 4.88333 10 6 10Z" fill="#8A8A9A"/>
</svg>
