<svg width="28" height="28" viewBox="0 0 28 28" fill="none" xmlns="http://www.w3.org/2000/svg">
<path d="M7.50033 3.5H19.167V18.6667L11.0003 26.8333L9.54199 25.375C9.40588 25.2389 9.29388 25.0542 9.20599 24.8208C9.1181 24.5875 9.07455 24.3639 9.07533 24.15V23.7417L10.3587 18.6667H4.00033C3.3781 18.6667 2.83366 18.4333 2.36699 17.9667C1.90033 17.5 1.66699 16.9556 1.66699 16.3333V14C1.66699 13.8639 1.68138 13.7181 1.71016 13.5625C1.73894 13.4069 1.78288 13.2611 1.84199 13.125L5.34199 4.9C5.51699 4.51111 5.80866 4.18056 6.21699 3.90833C6.62533 3.63611 7.0531 3.5 7.50033 3.5ZM21.5003 18.6667V3.5H26.167V18.6667H21.5003Z" fill="#8A8A9A"/>
</svg>
