<svg width="22" height="22" viewBox="0 0 22 22" fill="none" xmlns="http://www.w3.org/2000/svg">
<path d="M17.1167 19.5C16.6833 20.8 15.4917 21.6667 14.0833 21.6667H3.25C1.40833 21.6667 0 20.2583 0 18.4167V17.3333H13.2167C13.65 18.6333 14.8417 19.5 16.25 19.5H17.1167ZM18.4167 0H6.5C4.65833 0 3.25 1.40833 3.25 3.25V15.1667H15.1667V16.25C15.1667 16.9 15.6 17.3333 16.25 17.3333H17.3333V3.25C17.3333 2.6 17.7667 2.16667 18.4167 2.16667C19.0667 2.16667 19.5 2.6 19.5 3.25V4.33333H21.6667V3.25C21.6667 1.40833 20.2583 0 18.4167 0Z" fill="#39FF14"/>
</svg>
