<svg width="18" height="19" viewBox="0 0 18 19" fill="none" xmlns="http://www.w3.org/2000/svg">
<path d="M8.91855 12.375C8.06765 12.375 7.2516 12.037 6.64992 11.4353C6.04824 10.8336 5.71022 10.0176 5.71022 9.16667C5.71022 8.31577 6.04824 7.49971 6.64992 6.89803C7.2516 6.29636 8.06765 5.95834 8.91855 5.95834C9.76946 5.95834 10.5855 6.29636 11.1872 6.89803C11.7889 7.49971 12.1269 8.31577 12.1269 9.16667C12.1269 10.0176 11.7889 10.8336 11.1872 11.4353C10.5855 12.037 9.76946 12.375 8.91855 12.375ZM15.7294 10.0558C15.7661 9.7625 15.7936 9.46917 15.7936 9.16667C15.7936 8.86417 15.7661 8.56167 15.7294 8.25L17.6636 6.75584C17.8377 6.61834 17.8836 6.37083 17.7736 6.16917L15.9402 2.9975C15.8302 2.79584 15.5827 2.71334 15.3811 2.79584L13.0986 3.7125C12.6219 3.355 12.1269 3.04334 11.5494 2.81417L11.2102 0.385002C11.1916 0.277034 11.1354 0.179143 11.0515 0.108674C10.9676 0.0382047 10.8614 -0.000293127 10.7519 1.68068e-06H7.08522C6.85605 1.68068e-06 6.66355 0.165002 6.62689 0.385002L6.28772 2.81417C5.71022 3.04334 5.21522 3.355 4.73855 3.7125L2.45605 2.79584C2.25439 2.71334 2.00689 2.79584 1.89689 2.9975L0.0635539 6.16917C-0.0556127 6.37083 -0.00061261 6.61834 0.173554 6.75584L2.10772 8.25C2.07105 8.56167 2.04355 8.86417 2.04355 9.16667C2.04355 9.46917 2.07105 9.7625 2.10772 10.0558L0.173554 11.5775C-0.00061261 11.715 -0.0556127 11.9625 0.0635539 12.1642L1.89689 15.3358C2.00689 15.5375 2.25439 15.6108 2.45605 15.5375L4.73855 14.6117C5.21522 14.9783 5.71022 15.29 6.28772 15.5192L6.62689 17.9483C6.66355 18.1683 6.85605 18.3333 7.08522 18.3333H10.7519C10.9811 18.3333 11.1736 18.1683 11.2102 17.9483L11.5494 15.5192C12.1269 15.2808 12.6219 14.9783 13.0986 14.6117L15.3811 15.5375C15.5827 15.6108 15.8302 15.5375 15.9402 15.3358L17.7736 12.1642C17.8836 11.9625 17.8377 11.715 17.6636 11.5775L15.7294 10.0558Z" fill="#8A8A9A"/>
</svg>
