<svg width="10" height="10" viewBox="0 0 10 10" fill="none" xmlns="http://www.w3.org/2000/svg">
<path d="M5 0C2.24 0 0 2.24 0 5C0 7.76 2.24 10 5 10C7.76 10 10 7.76 10 5C10 2.24 7.76 0 5 0ZM3.645 7.145L1.85 5.35C1.80371 5.30371 1.76699 5.24875 1.74194 5.18827C1.71688 5.12779 1.70399 5.06297 1.70399 4.9975C1.70399 4.93203 1.71688 4.86721 1.74194 4.80673C1.76699 4.74625 1.80371 4.69129 1.85 4.645C1.89629 4.59871 1.95125 4.56199 2.01173 4.53694C2.07221 4.51188 2.13703 4.49899 2.2025 4.49899C2.26797 4.49899 2.33279 4.51188 2.39327 4.53694C2.45375 4.56199 2.50871 4.59871 2.555 4.645L4 6.085L7.44 2.645C7.53349 2.55151 7.66029 2.49899 7.7925 2.49899C7.92471 2.49899 8.05151 2.55151 8.145 2.645C8.23849 2.73849 8.29101 2.86529 8.29101 2.9975C8.29101 3.12971 8.23849 3.25651 8.145 3.35L4.35 7.145C4.30374 7.19135 4.2488 7.22813 4.18831 7.25322C4.12783 7.27831 4.06298 7.29122 3.9975 7.29122C3.93202 7.29122 3.86717 7.27831 3.80669 7.25322C3.7462 7.22813 3.69126 7.19135 3.645 7.145Z" fill="#00F5FF"/>
</svg>
